<svg width="59" height="76" viewBox="0 0 59 76" fill="none" xmlns="http://www.w3.org/2000/svg">
<path d="M0.0170618 48.0132L1.26706 55.5132C1.3199 55.8302 1.49286 56.1148 1.75003 56.3077L11.4375 63.5733L12.5641 66.953C12.6471 67.2019 12.8062 67.4184 13.0191 67.5718C13.2319 67.7252 13.4877 67.8077 13.75 67.8077C13.8191 67.8076 13.8881 67.8019 13.9563 67.7906L14.5555 67.6907L13.815 69.9122C13.7722 70.0397 13.7503 70.1732 13.75 70.3077V74.0577C13.75 74.3892 13.8817 74.7072 14.1161 74.9416C14.3506 75.176 14.6685 75.3077 15 75.3077H45C45.1902 75.3077 45.3778 75.2643 45.5486 75.1809C45.7195 75.0974 45.869 74.9761 45.9859 74.8261C46.1028 74.6762 46.1839 74.5015 46.2232 74.3155C46.2624 74.1294 46.2586 73.9369 46.2122 73.7525L45.4586 70.7596L53.1305 75.143C53.4054 75.3001 53.7297 75.347 54.0378 75.2742C54.3459 75.2015 54.615 75.0145 54.7907 74.7511C54.7907 74.7511 57.3921 70.8167 57.4044 70.7868C57.4092 70.7753 58.7133 65.6108 58.7133 65.6108C58.7823 65.3349 58.7551 65.0438 58.6363 64.7854C58.5174 64.527 58.3141 64.3169 58.0597 64.1897L55.5597 62.9397C55.325 62.8224 55.0594 62.7819 54.8004 62.824C54.5414 62.866 54.3022 62.9885 54.1167 63.1741C54.1167 63.1741 51.3894 65.9611 51.3288 66.1257L48.2894 64.4272L53.4349 58.6383C53.6099 58.4415 53.7182 58.1944 53.7444 57.9324L54.9944 45.4324C55.0067 45.309 55.0007 45.1845 54.9764 45.0628L53.0196 35.2786C52.6335 33.3483 51.7074 31.5673 50.349 30.1427C48.9905 28.718 47.2556 27.7083 45.3458 27.231L42.8517 26.6074L35.8871 24.2858L35 22.5125V20.6202L35.75 20.0577C35.9053 19.9413 36.0313 19.7903 36.1181 19.6167C36.2048 19.4431 36.25 19.2517 36.25 19.0577V16.5577C36.5816 16.5577 36.8995 16.426 37.1339 16.1916C37.3683 15.9571 37.5 15.6392 37.5 15.3077V10.5039C38.3286 7.95271 38.7504 5.28696 38.75 2.60456V1.55769C38.75 1.22616 38.6183 0.908222 38.3839 0.673802C38.1495 0.439381 37.8316 0.307685 37.5 0.307685H31.0355C28.5114 0.300666 26.0835 1.27597 24.2657 3.02722L22.2361 4.04206C21.1886 4.56582 20.3076 5.37095 19.6919 6.36721C19.0762 7.36347 18.75 8.51151 18.75 9.68268C18.75 10.8539 19.0762 12.0019 19.6919 12.9982C20.3076 13.9944 21.1886 14.7995 22.2361 15.3233L22.5103 15.4603C22.5476 15.763 22.6942 16.0416 22.9225 16.2437C23.1508 16.4458 23.4451 16.5575 23.75 16.5577V19.0577C23.75 19.2517 23.7952 19.4431 23.882 19.6167C23.9688 19.7903 24.0948 19.9413 24.25 20.0577L25 20.6202V22.5125L24.0946 24.3233L18.5092 26.5577H17.691C14.8385 26.5577 12.0785 27.5696 9.90196 29.4134C7.72544 31.2571 6.27355 33.8132 5.80456 36.6269L5.07019 41.0311L0.273936 47.0264C0.164183 47.1636 0.0845805 47.3224 0.0403195 47.4924C-0.00394151 47.6624 -0.0118659 47.8399 0.0170618 48.0132ZM16.25 70.5108L17.3449 67.2261L21.4555 66.5411C21.6796 66.5038 21.8893 66.406 22.062 66.2584C22.2348 66.1108 22.364 65.9189 22.4358 65.7033L23.2666 63.211L32.4475 66.8828L31.46 68.3641C31.2864 68.6243 31.2167 68.9402 31.2646 69.2493C31.3125 69.5584 31.4746 69.8383 31.7188 70.0338L35.1866 72.8077H16.25V70.5108ZM17.8841 43.4574L18.4186 47.735L15.7269 46.2308L17.8841 43.4574ZM28.25 34.3077C28.7558 34.6841 29.3695 34.8874 30 34.8874C30.6305 34.8874 31.2442 34.6841 31.75 34.3077C34.1033 32.5336 35.6713 29.9113 36.1205 26.9986L36.2443 27.0399C36.1881 31.0726 35.3648 35.0577 33.8183 38.7825C33.1992 40.2778 32.4676 41.724 31.6297 43.1086L31.25 43.0327V39.0577C31.25 38.7262 31.1183 38.4082 30.8839 38.1738C30.6495 37.9394 30.3316 37.8077 30 37.8077C29.6685 37.8077 29.3506 37.9394 29.1161 38.1738C28.8817 38.4082 28.75 38.7262 28.75 39.0577V43.0817L25.1455 43.9828L20.5591 41.6897C20.4361 41.6284 20.3038 41.588 20.1675 41.5699L20 40.2296V28.6539L23.895 27.096C24.364 29.9709 25.924 32.5541 28.25 34.3077ZM40.2227 70.8172L38.6572 72.3827L34.1758 68.7975L35.8022 66.358L37.0018 65.9582C37.0128 65.9544 37.0232 65.9496 37.0341 65.9455L41.4113 68.4467C41.4016 68.4641 41.391 68.4807 41.3821 68.4986L40.2227 70.8172ZM31.7839 55.2036L34.7921 51.8946C37.409 49.0177 39.5197 45.7184 41.0346 42.1366L38.7982 49.9647C38.7663 50.0763 38.7501 50.1917 38.75 50.3077V59.0964L31.7839 55.2036ZM41.25 50.4827L42.8191 44.991L43.75 46.8528V54.9072L41.25 58.4072V50.4827ZM41.25 28.7241C41.2563 36.6722 38.2934 44.336 32.9424 50.213L29.5436 53.9516L27.0291 52.5464L28.6613 50.9144C34.8017 44.7754 38.3958 36.543 38.7238 27.8663L41.25 28.7086V28.7241ZM21.1272 49.2483L20.53 44.4702L24.441 46.4257C24.7078 46.5591 25.0137 46.5927 25.3032 46.5203L30.0303 45.3385L30.1322 45.3589C29.1527 46.7037 28.0699 47.97 26.8935 49.1464L24.761 51.2789L21.1272 49.2483ZM14.1741 48.2267L26.5313 55.1322L25.2099 57.1143C25.1178 57.2508 25.0536 57.4042 25.0209 57.5657C24.9883 57.7271 24.9879 57.8934 25.0198 58.055C25.0516 58.2166 25.1151 58.3703 25.2066 58.5073C25.2981 58.6443 25.4157 58.7619 25.5527 58.8532C25.6898 58.9446 25.8435 59.008 26.0051 59.0398C26.1668 59.0715 26.3331 59.071 26.4945 59.0383C26.6559 59.0056 26.8093 58.9413 26.9458 58.8491C27.0823 58.7569 27.1992 58.6386 27.2899 58.5011L28.7203 56.3555L30.4777 57.3375L28.9599 59.6143C28.8678 59.7508 28.8036 59.9042 28.7709 60.0657C28.7383 60.2271 28.7379 60.3934 28.7698 60.555C28.8016 60.7166 28.8651 60.8703 28.9566 61.0073C29.0481 61.1443 29.1657 61.2619 29.3027 61.3532C29.4398 61.4446 29.5935 61.508 29.7551 61.5398C29.9168 61.5715 30.0831 61.571 30.2445 61.5383C30.4059 61.5056 30.5593 61.4413 30.6958 61.3491C30.8323 61.2569 30.9492 61.1386 31.0399 61.0011L32.6667 58.5608L36.9966 60.9805L35.1574 63.9375L34.6047 64.1217C34.341 64.2096 34.1141 64.3829 33.9599 64.6143L33.8646 64.7572L23.2032 60.4924L19.6346 56.9238C19.5184 56.8076 19.3805 56.7155 19.2287 56.6527C19.077 56.5899 18.9143 56.5576 18.75 56.5577H15.6008L11.5921 51.5469L14.1741 48.2267ZM41.7678 72.8077L42.1339 72.4416C42.229 72.3466 42.3082 72.2369 42.3683 72.1167L42.9366 70.9805L43.3963 72.8077H41.7678ZM53.3572 72.3936L38.2217 63.7452L39.1816 62.2019L54.4599 70.7399L53.3572 72.3936ZM55.2469 65.5786L56.0438 65.9772L55.4332 68.4196L53.4908 67.3343L55.2469 65.5786ZM48.4077 31.733C49.5114 32.8346 50.2631 34.2392 50.5674 35.7686L52.4875 45.3702L51.2969 57.28L46.0541 63.178L42.3807 61.1253L46.0172 56.0342C46.1686 55.8222 46.25 55.5682 46.25 55.3077V46.5577C46.25 46.3636 46.2048 46.1722 46.118 45.9986L43.75 41.2625V29.4086L44.7389 29.6558C46.1274 30.0031 47.3955 30.721 48.4077 31.733ZM25 14.0577V11.5577H35V14.0577H32.7952L30.5591 12.9397C30.3855 12.8529 30.1941 12.8077 30 12.8077C29.806 12.8077 29.6145 12.8529 29.441 12.9397L27.2049 14.0577H25ZM21.25 9.68268C21.2476 8.9753 21.4435 8.28138 21.8154 7.67963C22.1873 7.07788 22.7203 6.59237 23.3541 6.27815L25.5591 5.17565C25.6793 5.11558 25.789 5.03643 25.8839 4.94128C26.5589 4.26269 27.3617 3.72471 28.246 3.35848C29.1303 2.99224 30.0784 2.80503 31.0355 2.80769H36.2491C36.2312 4.92327 35.9223 7.02633 35.331 9.05768H23.75C23.4185 9.05768 23.1006 9.18938 22.8661 9.4238C22.6317 9.65822 22.5 9.97616 22.5 10.3077V12.5046C22.1051 12.1485 21.7896 11.7131 21.5742 11.2269C21.3588 10.7407 21.2484 10.2145 21.25 9.68268ZM27.5 16.5577C27.6941 16.5577 27.8855 16.5125 28.0591 16.4257L30 15.4552L31.941 16.4257C32.1145 16.5125 32.306 16.5577 32.5 16.5577H33.75V18.4327L31.25 20.3077H28.75L26.25 18.4327V16.5577H27.5ZM27.5835 22.5577C27.7998 22.72 28.063 22.8077 28.3335 22.8077H31.6669C31.9374 22.8077 32.2005 22.72 32.4169 22.5577L32.5 22.4952V22.8077C32.5 23.0018 32.5452 23.1932 32.6321 23.3667L33.7414 25.5855C33.6973 26.8954 33.3608 28.1788 32.7567 29.3419C32.1527 30.5049 31.2962 31.5183 30.25 32.3077C30.1778 32.3614 30.0901 32.3904 30 32.3904C29.91 32.3904 29.8223 32.3614 29.75 32.3077C28.7039 31.5184 27.8474 30.5052 27.2433 29.3423C26.6391 28.1793 26.3026 26.896 26.2583 25.5863L27.3677 23.3675C27.4548 23.1938 27.5001 23.0021 27.5 22.8077V22.4952L27.5835 22.5577ZM7.22612 42.3389C7.35958 42.1723 7.44802 41.9742 7.483 41.7636L8.2705 37.0385C8.63665 34.8408 9.75965 32.8402 11.4451 31.3831C13.1306 29.9261 15.2725 29.1041 17.5 29.0596V39.8788L13.1628 45.455C13.0076 45.5372 12.8716 45.6514 12.7638 45.7901C12.6561 45.9288 12.579 46.0888 12.5378 46.2596L9.01394 50.7908C8.84152 51.0125 8.74881 51.2859 8.75073 51.5667C8.75266 51.8476 8.84912 52.1196 9.02456 52.3389L14.0246 58.5889C14.1416 58.7352 14.2901 58.8532 14.4589 58.9344C14.6278 59.0155 14.8127 59.0576 15 59.0577H18.2324L21.0699 61.8953L20.3022 64.1983L14.5982 65.1491L13.6858 62.4124C13.6054 62.1712 13.4534 61.9602 13.25 61.8077L3.65066 54.6082L2.57487 48.1527L7.22612 42.3389Z" fill="white"/>
</svg>
